<svg xmlns="http://www.w3.org/2000/svg" width="131" height="131" viewBox="0 0 131 131">
  <g id="launcher_icon" transform="translate(712 -321)">
    <circle id="Ellipse_7" data-name="Ellipse 7" cx="65.5" cy="65.5" r="65.5" transform="translate(-712 321)" fill="#58a5f0"/>
    <g id="Group_11" data-name="Group 11" transform="translate(-696.317 365.355)">
      <g id="Group_7" data-name="Group 7" transform="translate(0 0)" style="isolation: isolate">
        <g id="Group_5" data-name="Group 5" transform="translate(1.734 0)">
          <path id="Path_4" data-name="Path 4" d="M58.848,45.258,15.323,41.637H15.3a6.339,6.339,0,0,1-4.577-1.953,6.735,6.735,0,0,1-1.9-4.722v-.018l0-.018L5.112,11.21a6.734,6.734,0,0,1,1.9-4.7,6.339,6.339,0,0,1,4.577-1.953h.018L65.561.5a6.339,6.339,0,0,1,4.568,1.953,6.734,6.734,0,0,1,1.9,4.7L65.32,38.533l-.005.025v.025a6.735,6.735,0,0,1-1.9,4.722A6.339,6.339,0,0,1,58.848,45.258Z" transform="translate(-3.059 -0.5)" fill="#e0e0e0" style="mix-blend-mode: darken;isolation: isolate"/>
          <path id="Path_5" data-name="Path 5" d="M12.078,0S9.921,8.346,0,12.923C23.724,14.808,20.273,0,20.273,0Z" transform="translate(0 38.232) rotate(-25)" fill="#e0e0e0" style="mix-blend-mode: darken;isolation: isolate"/>
          <path id="Path_6" data-name="Path 6" d="M55.108,37.966l-40.5-3.031h-.018A6.233,6.233,0,0,1,10.335,33.3a5.354,5.354,0,0,1-1.767-3.953v-.015l0-.015L5.112,9.465A5.355,5.355,0,0,1,6.879,5.528a6.233,6.233,0,0,1,4.259-1.634h.017L61.354.5A6.233,6.233,0,0,1,65.6,2.135a5.355,5.355,0,0,1,1.767,3.932L61.13,32.337l0,.021v.021a5.354,5.354,0,0,1-1.767,3.953A6.233,6.233,0,0,1,55.108,37.966Z" transform="translate(1.598 1.876)" fill="#fff"/>
          <path id="Path_201" data-name="Path 201" d="M7.676-8.55v1.691H2.527a.826.826,0,0,0-.608.247A.826.826,0,0,0,1.672-6a.858.858,0,0,0,.247.617.811.811,0,0,0,.608.257h3.42a2.505,2.505,0,0,1,1,.2,2.665,2.665,0,0,1,.817.542,2.473,2.473,0,0,1,.551.807,2.505,2.505,0,0,1,.2,1,2.505,2.505,0,0,1-.2,1,2.582,2.582,0,0,1-.551.817,2.582,2.582,0,0,1-.817.551,2.505,2.505,0,0,1-1,.2H.817V-1.71h5.13a.85.85,0,0,0,.627-.247.85.85,0,0,0,.247-.627.826.826,0,0,0-.247-.608.85.85,0,0,0-.627-.247H2.527a2.505,2.505,0,0,1-1-.2A2.473,2.473,0,0,1,.722-4.19a2.665,2.665,0,0,1-.542-.817,2.505,2.505,0,0,1-.2-1,2.505,2.505,0,0,1,.2-1,2.549,2.549,0,0,1,.542-.807,2.549,2.549,0,0,1,.808-.542,2.505,2.505,0,0,1,1-.2Zm7.163,0a4.146,4.146,0,0,1,1.663.332,4.417,4.417,0,0,1,1.358.912,4.224,4.224,0,0,1,.922,1.349,4.146,4.146,0,0,1,.332,1.663V-.019H17.423V-4.294a2.505,2.505,0,0,0-.2-1,2.582,2.582,0,0,0-.551-.817,2.554,2.554,0,0,0-.826-.551,2.574,2.574,0,0,0-1.007-.2,2.505,2.505,0,0,0-1,.2,2.582,2.582,0,0,0-.817.551,2.582,2.582,0,0,0-.551.817,2.505,2.505,0,0,0-.2,1V-.019H10.583V-11.97h1.691v4.294a4.073,4.073,0,0,1,1.188-.646A4.163,4.163,0,0,1,14.839-8.55Zm10.545,0a4.146,4.146,0,0,1,1.663.332,4.3,4.3,0,0,1,1.349.912,4.3,4.3,0,0,1,.912,1.349,4.146,4.146,0,0,1,.333,1.663V-.019H25.384a4.167,4.167,0,0,1-1.653-.333,4.306,4.306,0,0,1-1.368-.921,4.306,4.306,0,0,1-.922-1.368,4.167,4.167,0,0,1-.332-1.653,4.146,4.146,0,0,1,.332-1.663,4.224,4.224,0,0,1,.922-1.349,4.386,4.386,0,0,1,1.368-.912A4.167,4.167,0,0,1,25.384-8.55Zm2.565,6.84V-4.294a2.505,2.505,0,0,0-.2-1,2.582,2.582,0,0,0-.551-.817,2.582,2.582,0,0,0-.817-.551,2.505,2.505,0,0,0-1-.2,2.574,2.574,0,0,0-1.007.2,2.554,2.554,0,0,0-.826.551A2.582,2.582,0,0,0,23-5.292a2.505,2.505,0,0,0-.2,1A2.574,2.574,0,0,0,23-3.287a2.554,2.554,0,0,0,.551.827,2.554,2.554,0,0,0,.826.551,2.574,2.574,0,0,0,1.007.2Zm8.816,0V-.019h-.836a4.167,4.167,0,0,1-1.653-.333,4.306,4.306,0,0,1-1.368-.921,4.306,4.306,0,0,1-.921-1.368,4.167,4.167,0,0,1-.333-1.653V-11.97h1.691v5.13h3.42v1.691h-3.42v.855a2.574,2.574,0,0,0,.2,1.007,2.554,2.554,0,0,0,.551.827,2.554,2.554,0,0,0,.826.551,2.574,2.574,0,0,0,1.007.2Z" transform="translate(17.498 28.396)" fill="#58a5f0"/>
        </g>
        <line id="Line_7" data-name="Line 7" x2="3.327" transform="translate(62.717 25.188)" fill="none" stroke="#58a5f0" stroke-width="4"/>
        <g id="Group_8" data-name="Group 8" transform="translate(66.519 15.921)">
          <path id="Path_202" data-name="Path 202" d="M5.649-1.89V-.021H4.725A4.605,4.605,0,0,1,2.9-.389,4.759,4.759,0,0,1,1.386-1.407,4.759,4.759,0,0,1,.368-2.919,4.605,4.605,0,0,1,0-4.746V-13.23H1.869v5.67h3.78v1.869H1.869v.945A2.845,2.845,0,0,0,2.09-3.633,2.823,2.823,0,0,0,2.7-2.72a2.823,2.823,0,0,0,.914.609,2.845,2.845,0,0,0,1.113.22ZM15.54-3.339l1.323,1.323-.651.651A4.692,4.692,0,0,1,14.679-.336a4.669,4.669,0,0,1-1.806.357,4.669,4.669,0,0,1-1.806-.357A4.692,4.692,0,0,1,9.534-1.365,4.472,4.472,0,0,1,8.505-2.93,4.9,4.9,0,0,1,8.169-4.7a4.813,4.813,0,0,1,.336-1.764A4.5,4.5,0,0,1,9.534-8.022,4.6,4.6,0,0,1,11.1-9.062a4.765,4.765,0,0,1,1.774-.346,4.765,4.765,0,0,1,1.774.346,4.6,4.6,0,0,1,1.564,1.04l.651.651L11.634-2.142a2.76,2.76,0,0,0,1.691.263,2.759,2.759,0,0,0,1.564-.809ZM10.857-6.72a2.749,2.749,0,0,0-.84,2.016,2.735,2.735,0,0,0,.294,1.239l.766-.766L12.17-5.324q.577-.577,1.113-1.1t.83-.819a2.816,2.816,0,0,0-1.691-.273A2.7,2.7,0,0,0,10.857-6.72ZM24.99-9.45v1.869h-.945a2.769,2.769,0,0,0-1.1.221,2.854,2.854,0,0,0-.9.609,2.854,2.854,0,0,0-.609.9,2.769,2.769,0,0,0-.221,1.1V-.021H19.32V-4.746a4.582,4.582,0,0,1,.368-1.838,4.668,4.668,0,0,1,1.018-1.491,4.848,4.848,0,0,1,1.512-1.008,4.605,4.605,0,0,1,1.827-.368Z" transform="translate(5.465 13)" fill="#fff"/>
          <line id="Line_8" data-name="Line 8" x2="3.327" transform="translate(0 9.267)" fill="none" stroke="#fff" stroke-width="4"/>
        </g>
      </g>
    </g>
  </g>
</svg>
